<svg xmlns="http://www.w3.org/2000/svg" viewBox="0 0 10.58 33.87" height="128" width="40"><path d="M3.33 0l.11.8.8 5.45c.36 2.57.79 5.84.94 7.28.36 3.5.36 10.06.01 12.73-.4 3.08-.41 3.24-.1 3.35.15.05.33-.15.4-.44 1.15-5.02 1.23-11.73.2-19.16C5.29 6.95 4.15 1.76 3.69.75zM.03 23.07c-.13-.02.21.87.79 2.08a76.4 76.4 0 012.16 5.17c.57 1.54 1.15 3 1.27 3.24.3.55.95.55 1.45 0 .21-.24.84-1.47 1.39-2.74a29.55 29.55 0 012.26-4.14c.69-1 1.26-1.92 1.26-2.03 0-1.2-3.16 2.71-4.78 5.93-.72 1.41-.76 1.45-.98.9-1.38-3.43-3.7-7.48-4.8-8.39a.08.08 0 00-.02-.02z"/></svg>